<svg xmlns="http://www.w3.org/2000/svg" viewBox="0 0 512 512" role="img" aria-labelledby="title desc">
  <title id="title">Asnapet Treasures app icon</title>
  <desc id="desc">A green and gold A T monogram with a leaf for Asnapet Treasures.</desc>
  <rect width="512" height="512" rx="112" fill="#fffdf7"/>
  <rect x="36" y="36" width="440" height="440" rx="92" fill="#14452e"/>
  <path d="M132 377 222 132h68l90 245h-70l-15-48h-84l-15 48h-64Zm97-105h48l-24-79-24 79Z" fill="#f0ce90"/>
  <path d="M315 161h92v55h-28v161h-64V216h-28v-55h28Z" fill="#fffdf7" opacity="0.94"/>
  <path d="M334 122c46-32 91-31 127-7-11 40-44 69-90 72-20 1-38-3-54-12 16-8 32-18 47-31-18 5-36 10-55 14 4-14 12-26 25-36Z" fill="#6fbf73"/>
  <path d="M121 392h270" stroke="#b8772a" stroke-width="24" stroke-linecap="round"/>
</svg>